<?xml version="1.0" encoding="us-ascii" standalone="no"?><svg xmlns="http://www.w3.org/2000/svg" xmlns:xlink="http://www.w3.org/1999/xlink" contentStyleType="text/css" height="331px" preserveAspectRatio="none" style="width:360px;height:331px;background:#FFFFFF;" version="1.1" viewBox="0 0 360 331" width="360px" zoomAndPan="magnify"><defs/><g><text fill="#000000" font-family="sans-serif" font-size="14" font-weight="bold" lengthAdjust="spacing" textLength="214.9375" x="65.7813" y="24.5332">Inventory &#23454;&#20307;&#29366;&#24577;&#22270; (&#25910;&#38134;&#36807;&#31243;)</text><g id="InStock"><rect fill="#F1F1F1" height="52.7031" rx="12.5" ry="12.5" style="stroke:#181818;stroke-width:0.5;" width="108" x="20.5" y="125.6094"/><line style="stroke:#181818;stroke-width:0.5;" x1="20.5" x2="128.5" y1="153.2188" y2="153.2188"/><text fill="#000000" font-family="sans-serif" font-size="14" lengthAdjust="spacing" textLength="88" x="30.5" y="145.1426">InStock (&#26377;&#36135;)</text><text fill="#000000" font-family="sans-serif" font-size="12" lengthAdjust="spacing" textLength="45" x="25.5" y="170.6758">qOH &gt; 0</text></g><g id="OutOfStock"><rect fill="#F1F1F1" height="52.7031" rx="12.5" ry="12.5" style="stroke:#181818;stroke-width:0.5;" width="135" x="7" y="272.6094"/><line style="stroke:#181818;stroke-width:0.5;" x1="7" x2="142" y1="300.2188" y2="300.2188"/><text fill="#000000" font-family="sans-serif" font-size="14" lengthAdjust="spacing" textLength="115" x="17" y="292.1426">OutOfStock (&#32570;&#36135;)</text><text fill="#000000" font-family="sans-serif" font-size="12" lengthAdjust="spacing" textLength="45" x="12" y="317.6758">qOH = 0</text></g><ellipse cx="74.5" cy="54.6094" fill="#222222" rx="10" ry="10" style="stroke:#222222;stroke-width:1.0;"/><!--link *start* to InStock--><g id="link_*start*_InStock"><path d="M74.5,64.7694 C74.5,78.5894 74.5,99.2794 74.5,119.3494 " fill="none" id="*start*-to-InStock" style="stroke:#181818;stroke-width:1.0;"/><polygon fill="#181818" points="74.5,125.3494,78.5,116.3494,74.5,120.3494,70.5,116.3494,74.5,125.3494" style="stroke:#181818;stroke-width:1.0;"/></g><!--link InStock to InStock--><g id="link_InStock_InStock"><path d="M128.82,141.6194 C147.96,141.4494 163.5,144.9494 163.5,152.1094 C163.5,159.2694 153.9598,162.8227 134.8198,162.6527 " fill="none" id="InStock-to-InStock" style="stroke:#181818;stroke-width:1.0;"/><polygon fill="#181818" points="128.82,162.5994,137.7841,166.6792,133.8198,162.6438,137.8552,158.6795,128.82,162.5994" style="stroke:#181818;stroke-width:1.0;"/><text fill="#000000" font-family="sans-serif" font-size="13" lengthAdjust="spacing" textLength="99" x="207" y="149.6045">updateStock(qty)</text><text fill="#000000" font-family="sans-serif" font-size="13" lengthAdjust="spacing" textLength="178" x="169.5" y="165.9561">[qOH &gt; qty] / qOH = qOH - qty</text></g><!--link InStock to OutOfStock--><g id="link_InStock_OutOfStock"><path d="M74.5,178.6994 C74.5,205.0394 74.5,239.8594 74.5,266.2894 " fill="none" id="InStock-to-OutOfStock" style="stroke:#181818;stroke-width:1.0;"/><polygon fill="#181818" points="74.5,272.2894,78.5,263.2894,74.5,267.2894,70.5,263.2894,74.5,272.2894" style="stroke:#181818;stroke-width:1.0;"/><text fill="#000000" font-family="sans-serif" font-size="13" lengthAdjust="spacing" textLength="99" x="92.5" y="223.1045">updateStock(qty)</text><text fill="#000000" font-family="sans-serif" font-size="13" lengthAdjust="spacing" textLength="137" x="75.5" y="239.4561">[qOH == qty] / qOH = 0</text></g><!--SRC=[TLB1Ji905BptApPU11CKFPhWMKuaUbGFHcfir09sDU5MD2e8I4tL82XHeW6ZHOn842dyY_PjoubVSCjMX8ENfc_oPkRDj5Z0MppoYtkyY4CxKGILWg6hvacTo378jv6BdDUxQjtg79lbf9lR488yuhV3E8g2lBIs8uIn418vRfmISyP7WX4v2QzY7etvnKKSMjka8jS9grPoZw5L2JdWxqvW5mVMdJMprHoi_U6sklLI8zbJvwpN0f5BtA_uB8e4vj4Syd93KWpqKT0-BNu3fIIaBdkjNFUk3PMYTQ2JP0VYLRWu0ZL6NrXCo5HxhHGpOoncQJIQB0AtDB62F9wvGGegprOi_PcaYtISdaHMJJC-gg2S6fzfoeF4ew5VGLC5BJiuUqY4NhiR3j8s-fChWgDkj2mkiLXqMa5JJXpxwR4XstTco8Y9Gpm73pfailHUxuZJI3N_cVbyesxzyiXRsQwjc3NpbUwLOd_cHlDBlXx-Bxxa6reRv6-9Tcyqqf0w1EN9wkHfOQu5NhADtAQMW4mQb3Fo7gEKRtd_1m00]--></g></svg>