<?xml version="1.0" encoding="us-ascii" standalone="no"?><svg xmlns="http://www.w3.org/2000/svg" xmlns:xlink="http://www.w3.org/1999/xlink" contentStyleType="text/css" height="685px" preserveAspectRatio="none" style="width:878px;height:685px;background:#FFFFFF;" version="1.1" viewBox="0 0 878 685" width="878px" zoomAndPan="magnify"><defs/><g><text fill="#000000" font-family="sans-serif" font-size="14" font-weight="bold" lengthAdjust="spacing" textLength="209.6875" x="320.1563" y="29.5332">&#30028;&#38754;&#20132;&#20114;&#26102;&#24207;&#22270; (&#22522;&#20110;&#22270;2&#31867;&#35774;&#35745;)</text><rect fill="#FFFFFF" height="625.8047" style="stroke:#181818;stroke-width:1.5;" width="867" x="5" y="53.6094"/><path d="M273,53.6094 L273,64.2188 L263,74.2188 L5,74.2188 " fill="none" style="stroke:#181818;stroke-width:1.5;"/><text fill="#000000" font-family="sans-serif" font-size="14" lengthAdjust="spacing" textLength="258" x="8" y="69.1426">-&gt; TotalLabel ++ : setText("Change: xxx")</text><rect fill="#FFFFFF" height="74.7031" style="stroke:#181818;stroke-width:1.0;" width="10" x="139.5" y="192.1797"/><rect fill="#FFFFFF" height="30.3516" style="stroke:#181818;stroke-width:1.0;" width="10" x="275" y="222.5313"/><rect fill="#FFFFFF" height="30.3516" style="stroke:#181818;stroke-width:1.0;" width="10" x="275" y="322.5859"/><rect fill="#FFFFFF" height="30.3516" style="stroke:#181818;stroke-width:1.0;" width="10" x="275" y="509.3438"/><rect fill="#FFFFFF" height="74.7031" style="stroke:#181818;stroke-width:1.0;" width="10" x="795.5" y="478.9922"/><rect fill="none" height="167.7578" style="stroke:#000000;stroke-width:1.5;" width="339" x="20" y="281.8828"/><line style="stroke:#181818;stroke-width:0.5;stroke-dasharray:5.0,5.0;" x1="54" x2="54" y1="159.8281" y2="585.6953"/><line style="stroke:#181818;stroke-width:0.5;stroke-dasharray:5.0,5.0;" x1="144" x2="144" y1="159.8281" y2="585.6953"/><line style="stroke:#181818;stroke-width:0.5;stroke-dasharray:5.0,5.0;" x1="280" x2="280" y1="159.8281" y2="585.6953"/><line style="stroke:#181818;stroke-width:0.5;stroke-dasharray:5.0,5.0;" x1="411" x2="411" y1="159.8281" y2="585.6953"/><line style="stroke:#181818;stroke-width:0.5;stroke-dasharray:5.0,5.0;" x1="526" x2="526" y1="159.8281" y2="585.6953"/><line style="stroke:#181818;stroke-width:0.5;stroke-dasharray:5.0,5.0;" x1="662" x2="662" y1="159.8281" y2="585.6953"/><line style="stroke:#181818;stroke-width:0.5;stroke-dasharray:5.0,5.0;" x1="800" x2="800" y1="159.8281" y2="585.6953"/><text fill="#000000" font-family="sans-serif" font-size="14" lengthAdjust="spacing" textLength="42" x="30" y="156.752">&#25910;&#38134;&#21592;</text><ellipse cx="54" cy="90.7188" fill="#E2E2F0" rx="8" ry="8" style="stroke:#181818;stroke-width:0.5;"/><path d="M54,98.7188 L54,125.7188 M41,106.7188 L67,106.7188 M54,125.7188 L41,140.7188 M54,125.7188 L67,140.7188 " fill="none" style="stroke:#181818;stroke-width:0.5;"/><text fill="#000000" font-family="sans-serif" font-size="14" lengthAdjust="spacing" textLength="42" x="30" y="599.2285">&#25910;&#38134;&#21592;</text><ellipse cx="54" cy="610.8047" fill="#E2E2F0" rx="8" ry="8" style="stroke:#181818;stroke-width:0.5;"/><path d="M54,618.8047 L54,645.8047 M41,626.8047 L67,626.8047 M54,645.8047 L41,660.8047 M54,645.8047 L67,660.8047 " fill="none" style="stroke:#181818;stroke-width:0.5;"/><rect fill="#E2E2F0" height="31.6094" rx="2.5" ry="2.5" style="stroke:#181818;stroke-width:0.5;" width="113" x="88" y="127.2188"/><text fill="#000000" font-family="sans-serif" font-size="14" lengthAdjust="spacing" textLength="99" x="95" y="148.752">newBtn : Button</text><rect fill="#E2E2F0" height="31.6094" rx="2.5" ry="2.5" style="stroke:#181818;stroke-width:0.5;" width="113" x="88" y="584.6953"/><text fill="#000000" font-family="sans-serif" font-size="14" lengthAdjust="spacing" textLength="99" x="95" y="606.2285">newBtn : Button</text><rect fill="#E2E2F0" height="31.6094" rx="2.5" ry="2.5" style="stroke:#181818;stroke-width:0.5;" width="138" x="211" y="127.2188"/><text fill="#000000" font-family="sans-serif" font-size="14" lengthAdjust="spacing" textLength="124" x="218" y="148.752">mainFrame : Frame</text><rect fill="#E2E2F0" height="31.6094" rx="2.5" ry="2.5" style="stroke:#181818;stroke-width:0.5;" width="138" x="211" y="584.6953"/><text fill="#000000" font-family="sans-serif" font-size="14" lengthAdjust="spacing" textLength="124" x="218" y="606.2285">mainFrame : Frame</text><rect fill="#E2E2F0" height="31.6094" rx="2.5" ry="2.5" style="stroke:#181818;stroke-width:0.5;" width="104" x="359" y="127.2188"/><text fill="#000000" font-family="sans-serif" font-size="14" lengthAdjust="spacing" textLength="90" x="366" y="148.752">orderList : List</text><rect fill="#E2E2F0" height="31.6094" rx="2.5" ry="2.5" style="stroke:#181818;stroke-width:0.5;" width="104" x="359" y="584.6953"/><text fill="#000000" font-family="sans-serif" font-size="14" lengthAdjust="spacing" textLength="90" x="366" y="606.2285">orderList : List</text><rect fill="#E2E2F0" height="31.6094" rx="2.5" ry="2.5" style="stroke:#181818;stroke-width:0.5;" width="107" x="473" y="127.2188"/><text fill="#000000" font-family="sans-serif" font-size="14" lengthAdjust="spacing" textLength="93" x="480" y="148.752">totalLbl : Label</text><rect fill="#E2E2F0" height="31.6094" rx="2.5" ry="2.5" style="stroke:#181818;stroke-width:0.5;" width="107" x="473" y="584.6953"/><text fill="#000000" font-family="sans-serif" font-size="14" lengthAdjust="spacing" textLength="93" x="480" y="606.2285">totalLbl : Label</text><rect fill="#E2E2F0" height="31.6094" rx="2.5" ry="2.5" style="stroke:#181818;stroke-width:0.5;" width="145" x="590" y="127.2188"/><text fill="#000000" font-family="sans-serif" font-size="14" lengthAdjust="spacing" textLength="131" x="597" y="148.752">currentOrder : Order</text><rect fill="#E2E2F0" height="31.6094" rx="2.5" ry="2.5" style="stroke:#181818;stroke-width:0.5;" width="145" x="590" y="584.6953"/><text fill="#000000" font-family="sans-serif" font-size="14" lengthAdjust="spacing" textLength="131" x="597" y="606.2285">currentOrder : Order</text><rect fill="#E2E2F0" height="31.6094" rx="2.5" ry="2.5" style="stroke:#181818;stroke-width:0.5;" width="111" x="745" y="127.2188"/><text fill="#000000" font-family="sans-serif" font-size="14" lengthAdjust="spacing" textLength="97" x="752" y="148.752">payBtn : Button</text><rect fill="#E2E2F0" height="31.6094" rx="2.5" ry="2.5" style="stroke:#181818;stroke-width:0.5;" width="111" x="745" y="584.6953"/><text fill="#000000" font-family="sans-serif" font-size="14" lengthAdjust="spacing" textLength="97" x="752" y="606.2285">payBtn : Button</text><rect fill="#FFFFFF" height="74.7031" style="stroke:#181818;stroke-width:1.0;" width="10" x="139.5" y="192.1797"/><rect fill="#FFFFFF" height="30.3516" style="stroke:#181818;stroke-width:1.0;" width="10" x="275" y="222.5313"/><rect fill="#FFFFFF" height="30.3516" style="stroke:#181818;stroke-width:1.0;" width="10" x="275" y="322.5859"/><rect fill="#FFFFFF" height="30.3516" style="stroke:#181818;stroke-width:1.0;" width="10" x="275" y="509.3438"/><rect fill="#FFFFFF" height="74.7031" style="stroke:#181818;stroke-width:1.0;" width="10" x="795.5" y="478.9922"/><polygon fill="#181818" points="127.5,188.1797,137.5,192.1797,127.5,196.1797,131.5,192.1797" style="stroke:#181818;stroke-width:1.0;"/><line style="stroke:#181818;stroke-width:1.0;" x1="54" x2="133.5" y1="192.1797" y2="192.1797"/><text fill="#000000" font-family="sans-serif" font-size="13" lengthAdjust="spacing" textLength="35" x="61" y="187.3232">click()</text><polygon fill="#181818" points="263,218.5313,273,222.5313,263,226.5313,267,222.5313" style="stroke:#181818;stroke-width:1.0;"/><line style="stroke:#181818;stroke-width:1.0;" x1="149.5" x2="269" y1="222.5313" y2="222.5313"/><text fill="#000000" font-family="sans-serif" font-size="13" lengthAdjust="spacing" textLength="89" x="156.5" y="217.6748">actionListener()</text><polygon fill="#181818" points="160.5,248.8828,150.5,252.8828,160.5,256.8828,156.5,252.8828" style="stroke:#181818;stroke-width:1.0;"/><line style="stroke:#181818;stroke-width:1.0;stroke-dasharray:2.0,2.0;" x1="154.5" x2="279" y1="252.8828" y2="252.8828"/><text fill="#000000" font-family="sans-serif" font-size="13" lengthAdjust="spacing" textLength="49" x="166.5" y="248.0264">success</text><polygon fill="#181818" points="65,262.8828,55,266.8828,65,270.8828,61,266.8828" style="stroke:#181818;stroke-width:1.0;"/><line style="stroke:#181818;stroke-width:1.0;stroke-dasharray:2.0,2.0;" x1="59" x2="143.5" y1="266.8828" y2="266.8828"/><path d="M20,281.8828 L93,281.8828 L93,290.2344 L83,300.2344 L20,300.2344 L20,281.8828 " fill="#EEEEEE" style="stroke:#000000;stroke-width:1.5;"/><rect fill="none" height="167.7578" style="stroke:#000000;stroke-width:1.5;" width="339" x="20" y="281.8828"/><text fill="#000000" font-family="sans-serif" font-size="13" font-weight="bold" lengthAdjust="spacing" textLength="28" x="35" y="296.3779">loop</text><text fill="#000000" font-family="sans-serif" font-size="11" font-weight="bold" lengthAdjust="spacing" textLength="76.0625" x="108" y="295.3018">[&#36880;&#19968;&#25195;&#25551;&#21830;&#21697;]</text><polygon fill="#181818" points="263,318.5859,273,322.5859,263,326.5859,267,322.5859" style="stroke:#181818;stroke-width:1.0;"/><line style="stroke:#181818;stroke-width:1.0;" x1="54" x2="269" y1="322.5859" y2="322.5859"/><text fill="#000000" font-family="sans-serif" font-size="13" lengthAdjust="spacing" textLength="123" x="61" y="317.7295">scan(inventoryId, qty)</text><polygon fill="#181818" points="65,348.9375,55,352.9375,65,356.9375,61,352.9375" style="stroke:#181818;stroke-width:1.0;"/><line style="stroke:#181818;stroke-width:1.0;stroke-dasharray:2.0,2.0;" x1="59" x2="279" y1="352.9375" y2="352.9375"/><text fill="#000000" font-family="sans-serif" font-size="13" lengthAdjust="spacing" textLength="118" x="71" y="348.0811">desc, price, subtotal</text><polygon fill="#181818" points="268,362.9375,278,366.9375,268,370.9375,272,366.9375" style="stroke:#181818;stroke-width:1.0;"/><line style="stroke:#181818;stroke-width:1.0;stroke-dasharray:2.0,2.0;" x1="54" x2="274" y1="366.9375" y2="366.9375"/><polygon fill="#181818" points="65,393.2891,55,397.2891,65,401.2891,61,397.2891" style="stroke:#181818;stroke-width:1.0;"/><line style="stroke:#181818;stroke-width:1.0;stroke-dasharray:2.0,2.0;" x1="59" x2="279" y1="397.2891" y2="397.2891"/><text fill="#000000" font-family="sans-serif" font-size="13" lengthAdjust="spacing" textLength="25" x="71" y="392.4326">total</text><polygon fill="#181818" points="268,407.2891,278,411.2891,268,415.2891,272,411.2891" style="stroke:#181818;stroke-width:1.0;"/><line style="stroke:#181818;stroke-width:1.0;stroke-dasharray:2.0,2.0;" x1="54" x2="274" y1="411.2891" y2="411.2891"/><polygon fill="#181818" points="65,437.6406,55,441.6406,65,445.6406,61,441.6406" style="stroke:#181818;stroke-width:1.0;"/><line style="stroke:#181818;stroke-width:1.0;stroke-dasharray:2.0,2.0;" x1="59" x2="279" y1="441.6406" y2="441.6406"/><text fill="#000000" font-family="sans-serif" font-size="13" lengthAdjust="spacing" textLength="67" x="71" y="436.7842">update view</text><polygon fill="#181818" points="783.5,474.9922,793.5,478.9922,783.5,482.9922,787.5,478.9922" style="stroke:#181818;stroke-width:1.0;"/><line style="stroke:#181818;stroke-width:1.0;" x1="54" x2="789.5" y1="478.9922" y2="478.9922"/><text fill="#000000" font-family="sans-serif" font-size="13" lengthAdjust="spacing" textLength="35" x="61" y="474.1357">click()</text><polygon fill="#181818" points="296,505.3438,286,509.3438,296,513.3438,292,509.3438" style="stroke:#181818;stroke-width:1.0;"/><line style="stroke:#181818;stroke-width:1.0;" x1="290" x2="794.5" y1="509.3438" y2="509.3438"/><text fill="#000000" font-family="sans-serif" font-size="13" lengthAdjust="spacing" textLength="89" x="302" y="504.4873">actionListener()</text><polygon fill="#181818" points="783.5,535.6953,793.5,539.6953,783.5,543.6953,787.5,539.6953" style="stroke:#181818;stroke-width:1.0;"/><line style="stroke:#181818;stroke-width:1.0;stroke-dasharray:2.0,2.0;" x1="280" x2="789.5" y1="539.6953" y2="539.6953"/><text fill="#000000" font-family="sans-serif" font-size="13" lengthAdjust="spacing" textLength="66" x="287" y="534.8389">receiptData</text><polygon fill="#181818" points="65,549.6953,55,553.6953,65,557.6953,61,553.6953" style="stroke:#181818;stroke-width:1.0;"/><line style="stroke:#181818;stroke-width:1.0;stroke-dasharray:2.0,2.0;" x1="59" x2="799.5" y1="553.6953" y2="553.6953"/><polygon fill="#181818" points="788.5,563.6953,798.5,567.6953,788.5,571.6953,792.5,567.6953" style="stroke:#181818;stroke-width:1.0;"/><line style="stroke:#181818;stroke-width:1.0;stroke-dasharray:2.0,2.0;" x1="54" x2="794.5" y1="567.6953" y2="567.6953"/><!--SRC=[bLJBJjj05DtxAqRPD8Y717I5HAL2LGa9sYxw0uCp0el4JiSJ7hlGyaf94o2yIYWj5IyL222XG9Cs_HdFs5dr5tezTi21b8Stjk-SEVVUSyyCqrYK87ibNVtotIhjMAKbiLRafIpFLr2OVorPfGnyTjXdPQTGSGhRJOevekbnJ74CKMB63Tqa0yGqyH3f8L5Zx3cbnXXYD44K1QlCe2WabelLN94lheSGDb4lDeSrGXMWO9ggnR7EK4WdOprCHrse9y6OeKlWAnchnyMmfh-4r0IWyYsH0xLeFTYW4KBxDPC1s7r9R1yZCVUd7ieCXgFzWr4NYGT9L4BVog3xMmzM4vGIdRrswM63VCiDyajHdg3kxcxKtePukMGVpelLK-TyZtzQSSEmU2M7_VuddosBTAgwL51yML3hCxznrDmCv6fKKqV2JGg21xPAh7FwmLu-a0tR6rDsVf4l7F7F1nBZxmMMAr4y8fY5PkXkvqGdr6VqM2NA8-M5BUjt3ePzjNnD0vnUorvXb61689sC1VWeOGcg8pEXgc0BvJgaH8XRn2XigytMbwe3fAhyi3Cd8dKeibc-CiDparAjg674KJMvO5qcWsk-77no5ap9frFsqRAtREVFHMRNsT_ZsSMQG4ubnwTthTAyLIxAZG6fRuXagbWFQ_eeJDUW4tsH5lIEJNYj1VJgQ6j7rkK6_xZDTwRiXPbxjG8wGbtZ_OSx85k4c6eBYbDD9IsWuQ0qvXMeheWE9A3RrLFlx8hCFlI7MX6VMtEs3m98T-OmKUloM6ocDAZ2v6TR8hd_zrTQ7E-uBUoKn5JM8tDEThtLnatLJe_NLo8UWM669UVDJXhNt8cSp0NFhehD92GJoR9LlhXNlY72v56yRR8xr7dQM1tnRTO-hZHEUNtUVJT0NZBEmZBBtVtvzNY2e56DZ2b4ZzJytTc6x78EBW7fwRgx98udRbryRsHC2Lu9NkZsbU377t7S0o9rWe_5yebLNd-WZsDuX43665Wuh49nj-P1YKgqE7k16MwSiEPPRmnYlU9wBrMfvejYRfKNqc9kmVgpBIPF7ZUXKEymreT85neV7myzP5B1kyYN-ny0]--></g></svg>